<svg width="145" height="62" viewBox="0 0 145 62" fill="none" xmlns="http://www.w3.org/2000/svg">
    <path d="M73 42C73 42.5523 72.5523 43 72 43C71.4477 43 71 42.5523 71 42C71 41.4477 71.4477 41 72 41C72.5523 41 73 41.4477 73 42Z" fill="white"/>
    <path d="M76 42C76 42.5523 75.5523 43 75 43C74.4477 43 74 42.5523 74 42C74 41.4477 74.4477 41 75 41C75.5523 41 76 41.4477 76 42Z" fill="white"/>
    <path d="M79 42C79 42.5523 78.5523 43 78 43C77.4477 43 77 42.5523 77 42C77 41.4477 77.4477 41 78 41C78.5523 41 79 41.4477 79 42Z" fill="white"/>
    <path d="M85 42C85 42.5523 84.5523 43 84 43C83.4477 43 83 42.5523 83 42C83 41.4477 83.4477 41 84 41C84.5523 41 85 41.4477 85 42Z" fill="white"/>
    <path d="M88 42C88 42.5523 87.5523 43 87 43C86.4477 43 86 42.5523 86 42C86 41.4477 86.4477 41 87 41C87.5523 41 88 41.4477 88 42Z" fill="white"/>
    <path d="M88 45C88 45.5523 87.5523 46 87 46C86.4477 46 86 45.5523 86 45C86 44.4477 86.4477 44 87 44C87.5523 44 88 44.4477 88 45Z" fill="white"/>
    <path d="M88 48C88 48.5523 87.5523 49 87 49C86.4477 49 86 48.5523 86 48C86 47.4477 86.4477 47 87 47C87.5523 47 88 47.4477 88 48Z" fill="white"/>
    <path d="M88 51C88 51.5523 87.5523 52 87 52C86.4477 52 86 51.5523 86 51C86 50.4477 86.4477 50 87 50C87.5523 50 88 50.4477 88 51Z" fill="white"/>
    <path d="M88 54C88 54.5523 87.5523 55 87 55C86.4477 55 86 54.5523 86 54C86 53.4477 86.4477 53 87 53C87.5523 53 88 53.4477 88 54Z" fill="white"/>
    <path d="M129 42C129 42.5523 128.552 43 128 43C127.448 43 127 42.5523 127 42C127 41.4477 127.448 41 128 41C128.552 41 129 41.4477 129 42Z" fill="white"/>
    <path d="M129 45C129 45.5523 128.552 46 128 46C127.448 46 127 45.5523 127 45C127 44.4477 127.448 44 128 44C128.552 44 129 44.4477 129 45Z" fill="white"/>
    <path d="M129 48C129 48.5523 128.552 49 128 49C127.448 49 127 48.5523 127 48C127 47.4477 127.448 47 128 47C128.552 47 129 47.4477 129 48Z" fill="white"/>
    <path d="M129 51C129 51.5523 128.552 52 128 52C127.448 52 127 51.5523 127 51C127 50.4477 127.448 50 128 50C128.552 50 129 50.4477 129 51Z" fill="white"/>
    <path d="M129 54C129 54.5523 128.552 55 128 55C127.448 55 127 54.5523 127 54C127 53.4477 127.448 53 128 53C128.552 53 129 53.4477 129 54Z" fill="white"/>
    <path d="M86 3C86 3.55228 85.5523 4 85 4C84.4477 4 84 3.55228 84 3C84 2.44772 84.4477 2 85 2C85.5523 2 86 2.44772 86 3Z" fill="white"/>
    <path d="M86 6C86 6.55228 85.5523 7 85 7C84.4477 7 84 6.55228 84 6C84 5.44772 84.4477 5 85 5C85.5523 5 86 5.44772 86 6Z" fill="white"/>
    <path d="M86 9C86 9.55228 85.5523 10 85 10C84.4477 10 84 9.55228 84 9C84 8.44772 84.4477 8 85 8C85.5523 8 86 8.44772 86 9Z" fill="white"/>
    <path d="M86 12C86 12.5523 85.5523 13 85 13C84.4477 13 84 12.5523 84 12C84 11.4477 84.4477 11 85 11C85.5523 11 86 11.4477 86 12Z" fill="white"/>
    <path d="M86 15C86 15.5523 85.5523 16 85 16C84.4477 16 84 15.5523 84 15C84 14.4477 84.4477 14 85 14C85.5523 14 86 14.4477 86 15Z" fill="white"/>
    <path d="M113 42C113 42.5523 112.552 43 112 43C111.448 43 111 42.5523 111 42C111 41.4477 111.448 41 112 41C112.552 41 113 41.4477 113 42Z" fill="white"/>
    <path d="M113 45C113 45.5523 112.552 46 112 46C111.448 46 111 45.5523 111 45C111 44.4477 111.448 44 112 44C112.552 44 113 44.4477 113 45Z" fill="white"/>
    <path d="M113 48C113 48.5523 112.552 49 112 49C111.448 49 111 48.5523 111 48C111 47.4477 111.448 47 112 47C112.552 47 113 47.4477 113 48Z" fill="white"/>
    <path d="M122 48C122 48.5523 121.552 49 121 49C120.448 49 120 48.5523 120 48C120 47.4477 120.448 47 121 47C121.552 47 122 47.4477 122 48Z" fill="white"/>
    <path d="M113 51C113 51.5523 112.552 52 112 52C111.448 52 111 51.5523 111 51C111 50.4477 111.448 50 112 50C112.552 50 113 50.4477 113 51Z" fill="white"/>
    <path d="M116 42C116 42.5523 115.552 43 115 43C114.448 43 114 42.5523 114 42C114 41.4477 114.448 41 115 41C115.552 41 116 41.4477 116 42Z" fill="white"/>
    <path d="M119 42C119 42.5523 118.552 43 118 43C117.448 43 117 42.5523 117 42C117 41.4477 117.448 41 118 41C118.552 41 119 41.4477 119 42Z" fill="white"/>
    <path d="M122 45C122 45.5523 121.552 46 121 46C120.448 46 120 45.5523 120 45C120 44.4477 120.448 44 121 44C121.552 44 122 44.4477 122 45Z" fill="white"/>
    <path d="M122 51C122 51.5523 121.552 52 121 52C120.448 52 120 51.5523 120 51C120 50.4477 120.448 50 121 50C121.552 50 122 50.4477 122 51Z" fill="white"/>
    <path d="M116 54C116 54.5523 115.552 55 115 55C114.448 55 114 54.5523 114 54C114 53.4477 114.448 53 115 53C115.552 53 116 53.4477 116 54Z" fill="white"/>
    <path d="M119 54C119 54.5523 118.552 55 118 55C117.448 55 117 54.5523 117 54C117 53.4477 117.448 53 118 53C118.552 53 119 53.4477 119 54Z" fill="white"/>
    <path d="M113 54C113 54.5523 112.552 55 112 55C111.448 55 111 54.5523 111 54C111 53.4477 111.448 53 112 53C112.552 53 113 53.4477 113 54Z" fill="white"/>
    <path d="M97 45C97 45.5523 96.5523 46 96 46C95.4477 46 95 45.5523 95 45C95 44.4477 95.4477 44 96 44C96.5523 44 97 44.4477 97 45Z" fill="white"/>
    <path d="M97 48C97 48.5523 96.5523 49 96 49C95.4477 49 95 48.5523 95 48C95 47.4477 95.4477 47 96 47C96.5523 47 97 47.4477 97 48Z" fill="white"/>
    <path d="M106 48C106 48.5523 105.552 49 105 49C104.448 49 104 48.5523 104 48C104 47.4477 104.448 47 105 47C105.552 47 106 47.4477 106 48Z" fill="white"/>
    <path d="M97 51C97 51.5523 96.5523 52 96 52C95.4477 52 95 51.5523 95 51C95 50.4477 95.4477 50 96 50C96.5523 50 97 50.4477 97 51Z" fill="white"/>
    <path d="M106 45C106 45.5523 105.552 46 105 46C104.448 46 104 45.5523 104 45C104 44.4477 104.448 44 105 44C105.552 44 106 44.4477 106 45Z" fill="white"/>
    <path d="M97 42C97 42.5523 96.5523 43 96 43C95.4477 43 95 42.5523 95 42C95 41.4477 95.4477 41 96 41C96.5523 41 97 41.4477 97 42Z" fill="white"/>
    <path d="M106 42C106 42.5523 105.552 43 105 43C104.448 43 104 42.5523 104 42C104 41.4477 104.448 41 105 41C105.552 41 106 41.4477 106 42Z" fill="white"/>
    <path d="M106 51C106 51.5523 105.552 52 105 52C104.448 52 104 51.5523 104 51C104 50.4477 104.448 50 105 50C105.552 50 106 50.4477 106 51Z" fill="white"/>
    <path d="M100 54C100 54.5523 99.5523 55 99 55C98.4477 55 98 54.5523 98 54C98 53.4477 98.4477 53 99 53C99.5523 53 100 53.4477 100 54Z" fill="white"/>
    <path d="M103 54C103 54.5523 102.552 55 102 55C101.448 55 101 54.5523 101 54C101 53.4477 101.448 53 102 53C102.552 53 103 53.4477 103 54Z" fill="white"/>
    <path d="M115 9C115 9.55228 114.552 10 114 10C113.448 10 113 9.55228 113 9C113 8.44772 113.448 8 114 8C114.552 8 115 8.44772 115 9Z" fill="white"/>
    <path d="M115 6C115 6.55228 114.552 7 114 7C113.448 7 113 6.55228 113 6C113 5.44772 113.448 5 114 5C114.552 5 115 5.44772 115 6Z" fill="white"/>
    <path d="M115 3C115 3.55228 114.552 4 114 4C113.448 4 113 3.55228 113 3C113 2.44772 113.448 2 114 2C114.552 2 115 2.44772 115 3Z" fill="white"/>
    <path d="M115 12C115 12.5523 114.552 13 114 13C113.448 13 113 12.5523 113 12C113 11.4477 113.448 11 114 11C114.552 11 115 11.4477 115 12Z" fill="white"/>
    <path d="M109 15C109 15.5523 108.552 16 108 16C107.448 16 107 15.5523 107 15C107 14.4477 107.448 14 108 14C108.552 14 109 14.4477 109 15Z" fill="white"/>
    <path d="M112 15C112 15.5523 111.552 16 111 16C110.448 16 110 15.5523 110 15C110 14.4477 110.448 14 111 14C111.552 14 112 14.4477 112 15Z" fill="white"/>
    <path d="M136 45C136 45.5523 135.552 46 135 46C134.448 46 134 45.5523 134 45C134 44.4477 134.448 44 135 44C135.552 44 136 44.4477 136 45Z" fill="white"/>
    <path d="M136 48C136 48.5523 135.552 49 135 49C134.448 49 134 48.5523 134 48C134 47.4477 134.448 47 135 47C135.552 47 136 47.4477 136 48Z" fill="white"/>
    <path d="M145 48C145 48.5523 144.552 49 144 49C143.448 49 143 48.5523 143 48C143 47.4477 143.448 47 144 47C144.552 47 145 47.4477 145 48Z" fill="white"/>
    <path d="M136 51C136 51.5523 135.552 52 135 52C134.448 52 134 51.5523 134 51C134 50.4477 134.448 50 135 50C135.552 50 136 50.4477 136 51Z" fill="white"/>
    <path d="M145 45C145 45.5523 144.552 46 144 46C143.448 46 143 45.5523 143 45C143 44.4477 143.448 44 144 44C144.552 44 145 44.4477 145 45Z" fill="white"/>
    <path d="M145 51C145 51.5523 144.552 52 144 52C143.448 52 143 51.5523 143 51C143 50.4477 143.448 50 144 50C144.552 50 145 50.4477 145 51Z" fill="white"/>
    <path d="M139 54C139 54.5523 138.552 55 138 55C137.448 55 137 54.5523 137 54C137 53.4477 137.448 53 138 53C138.552 53 139 53.4477 139 54Z" fill="white"/>
    <path d="M142 54C142 54.5523 141.552 55 141 55C140.448 55 140 54.5523 140 54C140 53.4477 140.448 53 141 53C141.552 53 142 53.4477 142 54Z" fill="white"/>
    <path d="M139 42C139 42.5523 138.552 43 138 43C137.448 43 137 42.5523 137 42C137 41.4477 137.448 41 138 41C138.552 41 139 41.4477 139 42Z" fill="white"/>
    <path d="M142 42C142 42.5523 141.552 43 141 43C140.448 43 140 42.5523 140 42C140 41.4477 140.448 41 141 41C141.552 41 142 41.4477 142 42Z" fill="white"/>
    <path d="M91 42C91 42.5523 90.5523 43 90 43C89.4477 43 89 42.5523 89 42C89 41.4477 89.4477 41 90 41C90.5523 41 91 41.4477 91 42Z" fill="white"/>
    <path d="M101 22C101 22.5523 100.552 23 100 23C99.4477 23 99 22.5523 99 22C99 21.4477 99.4477 21 100 21C100.552 21 101 21.4477 101 22Z" fill="white"/>
    <path d="M104 22C104 22.5523 103.552 23 103 23C102.448 23 102 22.5523 102 22C102 21.4477 102.448 21 103 21C103.552 21 104 21.4477 104 22Z" fill="white"/>
    <path d="M104 25C104 25.5523 103.552 26 103 26C102.448 26 102 25.5523 102 25C102 24.4477 102.448 24 103 24C103.552 24 104 24.4477 104 25Z" fill="white"/>
    <path d="M104 28C104 28.5523 103.552 29 103 29C102.448 29 102 28.5523 102 28C102 27.4477 102.448 27 103 27C103.552 27 104 27.4477 104 28Z" fill="white"/>
    <path d="M104 31C104 31.5523 103.552 32 103 32C102.448 32 102 31.5523 102 31C102 30.4477 102.448 30 103 30C103.552 30 104 30.4477 104 31Z" fill="white"/>
    <path d="M104 34C104 34.5523 103.552 35 103 35C102.448 35 102 34.5523 102 34C102 33.4477 102.448 33 103 33C103.552 33 104 33.4477 104 34Z" fill="white"/>
    <path d="M107 22C107 22.5523 106.552 23 106 23C105.448 23 105 22.5523 105 22C105 21.4477 105.448 21 106 21C106.552 21 107 21.4477 107 22Z" fill="white"/>
    <path d="M71 54C71 54.5523 70.5523 55 70 55C69.4477 55 69 54.5523 69 54C69 53.4477 69.4477 53 70 53C70.5523 53 71 53.4477 71 54Z" fill="white"/>
    <path d="M74 54C74 54.5523 73.5523 55 73 55C72.4477 55 72 54.5523 72 54C72 53.4477 72.4477 53 73 53C73.5523 53 74 53.4477 74 54Z" fill="white"/>
    <path d="M77 54C77 54.5523 76.5523 55 76 55C75.4477 55 75 54.5523 75 54C75 53.4477 75.4477 53 76 53C76.5523 53 77 53.4477 77 54Z" fill="white"/>
    <path d="M73 48C73 48.5523 72.5523 49 72 49C71.4477 49 71 48.5523 71 48C71 47.4477 71.4477 47 72 47C72.5523 47 73 47.4477 73 48Z" fill="white"/>
    <path d="M76 48C76 48.5523 75.5523 49 75 49C74.4477 49 74 48.5523 74 48C74 47.4477 74.4477 47 75 47C75.5523 47 76 47.4477 76 48Z" fill="white"/>
    <path d="M70 45C70 45.5523 69.5523 46 69 46C68.4477 46 68 45.5523 68 45C68 44.4477 68.4477 44 69 44C69.5523 44 70 44.4477 70 45Z" fill="white"/>
    <path d="M79 51C79 51.5523 78.5523 52 78 52C77.4477 52 77 51.5523 77 51C77 50.4477 77.4477 50 78 50C78.5523 50 79 50.4477 79 51Z" fill="white"/>
    <path d="M73 22C73 22.5523 72.5523 23 72 23C71.4477 23 71 22.5523 71 22C71 21.4477 71.4477 21 72 21C72.5523 21 73 21.4477 73 22Z" fill="white"/>
    <path d="M70 25C70 25.5523 69.5523 26 69 26C68.4477 26 68 25.5523 68 25C68 24.4477 68.4477 24 69 24C69.5523 24 70 24.4477 70 25Z" fill="white"/>
    <path d="M70 28C70 28.5523 69.5523 29 69 29C68.4477 29 68 28.5523 68 28C68 27.4477 68.4477 27 69 27C69.5523 27 70 27.4477 70 28Z" fill="white"/>
    <path d="M70 31C70 31.5523 69.5523 32 69 32C68.4477 32 68 31.5523 68 31C68 30.4477 68.4477 30 69 30C69.5523 30 70 30.4477 70 31Z" fill="white"/>
    <path d="M70 34C70 34.5523 69.5523 35 69 35C68.4477 35 68 34.5523 68 34C68 33.4477 68.4477 33 69 33C69.5523 33 70 33.4477 70 34Z" fill="white"/>
    <path d="M76 22C76 22.5523 75.5523 23 75 23C74.4477 23 74 22.5523 74 22C74 21.4477 74.4477 21 75 21C75.5523 21 76 21.4477 76 22Z" fill="white"/>
    <path d="M79 25C79 25.5523 78.5523 26 78 26C77.4477 26 77 25.5523 77 25C77 24.4477 77.4477 24 78 24C78.5523 24 79 24.4477 79 25Z" fill="white"/>
    <path d="M79 28C79 28.5523 78.5523 29 78 29C77.4477 29 77 28.5523 77 28C77 27.4477 77.4477 27 78 27C78.5523 27 79 27.4477 79 28Z" fill="white"/>
    <path d="M79 31C79 31.5523 78.5523 32 78 32C77.4477 32 77 31.5523 77 31C77 30.4477 77.4477 30 78 30C78.5523 30 79 30.4477 79 31Z" fill="white"/>
    <path d="M79 34C79 34.5523 78.5523 35 78 35C77.4477 35 77 34.5523 77 34C77 33.4477 77.4477 33 78 33C78.5523 33 79 33.4477 79 34Z" fill="white"/>
    <path d="M95 28C95 28.5523 94.5523 29 94 29C93.4477 29 93 28.5523 93 28C93 27.4477 93.4477 27 94 27C94.5523 27 95 27.4477 95 28Z" fill="white"/>
    <path d="M89 22C89 22.5523 88.5523 23 88 23C87.4477 23 87 22.5523 87 22C87 21.4477 87.4477 21 88 21C88.5523 21 89 21.4477 89 22Z" fill="white"/>
    <path d="M92 22C92 22.5523 91.5523 23 91 23C90.4477 23 90 22.5523 90 22C90 21.4477 90.4477 21 91 21C91.5523 21 92 21.4477 92 22Z" fill="white"/>
    <path d="M95 25C95 25.5523 94.5523 26 94 26C93.4477 26 93 25.5523 93 25C93 24.4477 93.4477 24 94 24C94.5523 24 95 24.4477 95 25Z" fill="white"/>
    <path d="M86 25C86 25.5523 85.5523 26 85 26C84.4477 26 84 25.5523 84 25C84 24.4477 84.4477 24 85 24C85.5523 24 86 24.4477 86 25Z" fill="white"/>
    <path d="M86 28C86 28.5523 85.5523 29 85 29C84.4477 29 84 28.5523 84 28C84 27.4477 84.4477 27 85 27C85.5523 27 86 27.4477 86 28Z" fill="white"/>
    <path d="M86 31C86 31.5523 85.5523 32 85 32C84.4477 32 84 31.5523 84 31C84 30.4477 84.4477 30 85 30C85.5523 30 86 30.4477 86 31Z" fill="white"/>
    <path d="M89 31C89 31.5523 88.5523 32 88 32C87.4477 32 87 31.5523 87 31C87 30.4477 87.4477 30 88 30C88.5523 30 89 30.4477 89 31Z" fill="white"/>
    <path d="M86 22C86 22.5523 85.5523 23 85 23C84.4477 23 84 22.5523 84 22C84 21.4477 84.4477 21 85 21C85.5523 21 86 21.4477 86 22Z" fill="white"/>
    <path d="M86 34C86 34.5523 85.5523 35 85 35C84.4477 35 84 34.5523 84 34C84 33.4477 84.4477 33 85 33C85.5523 33 86 33.4477 86 34Z" fill="white"/>
    <path d="M95 34C95 34.5523 94.5523 35 94 35C93.4477 35 93 34.5523 93 34C93 33.4477 93.4477 33 94 33C94.5523 33 95 33.4477 95 34Z" fill="white"/>
    <path d="M92 31C92 31.5523 91.5523 32 91 32C90.4477 32 90 31.5523 90 31C90 30.4477 90.4477 30 91 30C91.5523 30 92 30.4477 92 31Z" fill="white"/>
    <path d="M73 31C73 31.5523 72.5523 32 72 32C71.4477 32 71 31.5523 71 31C71 30.4477 71.4477 30 72 30C72.5523 30 73 30.4477 73 31Z" fill="white"/>
    <path d="M76 31C76 31.5523 75.5523 32 75 32C74.4477 32 74 31.5523 74 31C74 30.4477 74.4477 30 75 30C75.5523 30 76 30.4477 76 31Z" fill="white"/>
    <path d="M125 3C125 3.55228 124.552 4 124 4C123.448 4 123 3.55228 123 3C123 2.44772 123.448 2 124 2C124.552 2 125 2.44772 125 3Z" fill="white"/>
    <path d="M122 6C122 6.55228 121.552 7 121 7C120.448 7 120 6.55228 120 6C120 5.44772 120.448 5 121 5C121.552 5 122 5.44772 122 6Z" fill="white"/>
    <path d="M122 9C122 9.55228 121.552 10 121 10C120.448 10 120 9.55228 120 9C120 8.44772 120.448 8 121 8C121.552 8 122 8.44772 122 9Z" fill="white"/>
    <path d="M122 12C122 12.5523 121.552 13 121 13C120.448 13 120 12.5523 120 12C120 11.4477 120.448 11 121 11C121.552 11 122 11.4477 122 12Z" fill="white"/>
    <path d="M122 15C122 15.5523 121.552 16 121 16C120.448 16 120 15.5523 120 15C120 14.4477 120.448 14 121 14C121.552 14 122 14.4477 122 15Z" fill="white"/>
    <path d="M128 3C128 3.55228 127.552 4 127 4C126.448 4 126 3.55228 126 3C126 2.44772 126.448 2 127 2C127.552 2 128 2.44772 128 3Z" fill="white"/>
    <path d="M131 6C131 6.55228 130.552 7 130 7C129.448 7 129 6.55228 129 6C129 5.44772 129.448 5 130 5C130.552 5 131 5.44772 131 6Z" fill="white"/>
    <path d="M131 9C131 9.55228 130.552 10 130 10C129.448 10 129 9.55228 129 9C129 8.44772 129.448 8 130 8C130.552 8 131 8.44772 131 9Z" fill="white"/>
    <path d="M131 12C131 12.5523 130.552 13 130 13C129.448 13 129 12.5523 129 12C129 11.4477 129.448 11 130 11C130.552 11 131 11.4477 131 12Z" fill="white"/>
    <path d="M131 15C131 15.5523 130.552 16 130 16C129.448 16 129 15.5523 129 15C129 14.4477 129.448 14 130 14C130.552 14 131 14.4477 131 15Z" fill="white"/>
    <path d="M125 12C125 12.5523 124.552 13 124 13C123.448 13 123 12.5523 123 12C123 11.4477 123.448 11 124 11C124.552 11 125 11.4477 125 12Z" fill="white"/>
    <path d="M128 12C128 12.5523 127.552 13 127 13C126.448 13 126 12.5523 126 12C126 11.4477 126.448 11 127 11C127.552 11 128 11.4477 128 12Z" fill="white"/>
    <path d="M70 3C70 3.55228 69.5523 4 69 4C68.4477 4 68 3.55228 68 3C68 2.44772 68.4477 2 69 2C69.5523 2 70 2.44772 70 3Z" fill="white"/>
    <path d="M70 6C70 6.55228 69.5523 7 69 7C68.4477 7 68 6.55228 68 6C68 5.44772 68.4477 5 69 5C69.5523 5 70 5.44772 70 6Z" fill="white"/>
    <path d="M70 9C70 9.55228 69.5523 10 69 10C68.4477 10 68 9.55228 68 9C68 8.44772 68.4477 8 69 8C69.5523 8 70 8.44772 70 9Z" fill="white"/>
    <path d="M70 12C70 12.5523 69.5523 13 69 13C68.4477 13 68 12.5523 68 12C68 11.4477 68.4477 11 69 11C69.5523 11 70 11.4477 70 12Z" fill="white"/>
    <path d="M70 15C70 15.5523 69.5523 16 69 16C68.4477 16 68 15.5523 68 15C68 14.4477 68.4477 14 69 14C69.5523 14 70 14.4477 70 15Z" fill="white"/>
    <path d="M79 3C79 3.55228 78.5523 4 78 4C77.4477 4 77 3.55228 77 3C77 2.44772 77.4477 2 78 2C78.5523 2 79 2.44772 79 3Z" fill="white"/>
    <path d="M79 6C79 6.55228 78.5523 7 78 7C77.4477 7 77 6.55228 77 6C77 5.44772 77.4477 5 78 5C78.5523 5 79 5.44772 79 6Z" fill="white"/>
    <path d="M79 9C79 9.55228 78.5523 10 78 10C77.4477 10 77 9.55228 77 9C77 8.44772 77.4477 8 78 8C78.5523 8 79 8.44772 79 9Z" fill="white"/>
    <path d="M79 12C79 12.5523 78.5523 13 78 13C77.4477 13 77 12.5523 77 12C77 11.4477 77.4477 11 78 11C78.5523 11 79 11.4477 79 12Z" fill="white"/>
    <path d="M79 15C79 15.5523 78.5523 16 78 16C77.4477 16 77 15.5523 77 15C77 14.4477 77.4477 14 78 14C78.5523 14 79 14.4477 79 15Z" fill="white"/>
    <path d="M73 8C73 8.55228 72.5523 9 72 9C71.4477 9 71 8.55228 71 8C71 7.44772 71.4477 7 72 7C72.5523 7 73 7.44772 73 8Z" fill="white"/>
    <path d="M76 11C76 11.5523 75.5523 12 75 12C74.4477 12 74 11.5523 74 11C74 10.4477 74.4477 10 75 10C75.5523 10 76 10.4477 76 11Z" fill="white"/>
    <path d="M93 3C93 3.55228 92.5523 4 92 4C91.4477 4 91 3.55228 91 3C91 2.44772 91.4477 2 92 2C92.5523 2 93 2.44772 93 3Z" fill="white"/>
    <path d="M93 6C93 6.55228 92.5523 7 92 7C91.4477 7 91 6.55228 91 6C91 5.44772 91.4477 5 92 5C92.5523 5 93 5.44772 93 6Z" fill="white"/>
    <path d="M93 9C93 9.55228 92.5523 10 92 10C91.4477 10 91 9.55228 91 9C91 8.44772 91.4477 8 92 8C92.5523 8 93 8.44772 93 9Z" fill="white"/>
    <path d="M93 12C93 12.5523 92.5523 13 92 13C91.4477 13 91 12.5523 91 12C91 11.4477 91.4477 11 92 11C92.5523 11 93 11.4477 93 12Z" fill="white"/>
    <path d="M93 15C93 15.5523 92.5523 16 92 16C91.4477 16 91 15.5523 91 15C91 14.4477 91.4477 14 92 14C92.5523 14 93 14.4477 93 15Z" fill="white"/>
    <path d="M102 3C102 3.55228 101.552 4 101 4C100.448 4 100 3.55228 100 3C100 2.44772 100.448 2 101 2C101.552 2 102 2.44772 102 3Z" fill="white"/>
    <path d="M102 6C102 6.55228 101.552 7 101 7C100.448 7 100 6.55228 100 6C100 5.44772 100.448 5 101 5C101.552 5 102 5.44772 102 6Z" fill="white"/>
    <path d="M102 9C102 9.55228 101.552 10 101 10C100.448 10 100 9.55228 100 9C100 8.44772 100.448 8 101 8C101.552 8 102 8.44772 102 9Z" fill="white"/>
    <path d="M102 12C102 12.5523 101.552 13 101 13C100.448 13 100 12.5523 100 12C100 11.4477 100.448 11 101 11C101.552 11 102 11.4477 102 12Z" fill="white"/>
    <path d="M102 15C102 15.5523 101.552 16 101 16C100.448 16 100 15.5523 100 15C100 14.4477 100.448 14 101 14C101.552 14 102 14.4477 102 15Z" fill="white"/>
    <path d="M96 8C96 8.55228 95.5523 9 95 9C94.4477 9 94 8.55228 94 8C94 7.44772 94.4477 7 95 7C95.5523 7 96 7.44772 96 8Z" fill="white"/>
    <path d="M99 11C99 11.5523 98.5523 12 98 12C97.4477 12 97 11.5523 97 11C97 10.4477 97.4477 10 98 10C98.5523 10 99 10.4477 99 11Z" fill="white"/>
    <path fill-rule="evenodd" clip-rule="evenodd"
          d="M27.5 3C28.3284 3 29 2.32843 29 1.5C29 0.671573 28.3284 0 27.5 0C26.6716 0 26 0.671573 26 1.5C26 2.32843 26.6716 3 27.5 3ZM50.3866 13.9205L30.5344 3.23082L31.0085 2.35035L50.8607 13.04L50.3866 13.9205ZM50.1055 16.6029L30.395 28.4292L30.8472 29.1829L30.8441 29.1836L31.0775 30.156L50.2057 25.5653L49.9723 24.5929L31.2394 29.0888L50.62 17.4604L50.1055 16.6029ZM53 28V42H54V28H53ZM50 45.3662L50.1408 46.3364L31 49.3989L30.812 48.4188L50 45.3662ZM50.1601 46.4039L50.5873 47.3138L30.7833 59.1962L30.2458 58.3525L50.1601 46.4039ZM27 27V4.99998H28V27H27ZM27 53V57H28V53H27ZM53 19V21H54V19H53ZM29 60.5C29 61.3284 28.3284 62 27.5 62C26.6716 62 26 61.3284 26 60.5C26 59.6716 26.6716 59 27.5 59C28.3284 59 29 59.6716 29 60.5ZM53.5 17C54.3284 17 55 16.3284 55 15.5C55 14.6716 54.3284 14 53.5 14C52.6716 14 52 14.6716 52 15.5C52 16.3284 52.6716 17 53.5 17ZM55 45.5C55 46.3284 54.3284 47 53.5 47C52.6716 47 52 46.3284 52 45.5C52 44.6716 52.6716 44 53.5 44C54.3284 44 55 44.6716 55 45.5ZM53.5 26C54.3284 26 55 25.3284 55 24.5C55 23.6716 54.3284 23 53.5 23C52.6716 23 52 23.6716 52 24.5C52 25.3284 52.6716 26 53.5 26ZM29 30.5C29 31.3284 28.3284 32 27.5 32C26.6716 32 26 31.3284 26 30.5C26 29.6716 26.6716 29 27.5 29C28.3284 29 29 29.6716 29 30.5ZM27.5 51C28.3284 51 29 50.3284 29 49.5C29 48.6716 28.3284 48 27.5 48C26.6716 48 26 48.6716 26 49.5C26 50.3284 26.6716 51 27.5 51ZM45 37.5C45 38.3284 44.3284 39 43.5 39C42.6716 39 42 38.3284 42 37.5C42 36.6716 42.6716 36 43.5 36C44.3284 36 45 36.6716 45 37.5ZM4.8945 16.6029L24.605 28.4292L24.1528 29.1829L24.1559 29.1836L23.9225 30.156L4.79431 25.5652L5.02768 24.5929L23.7606 29.0888L4.38 17.4604L4.8945 16.6029ZM2 42V28H1V42H2ZM24.4656 3.23081L4.61341 13.9205L4.13931 13.04L23.9915 2.35034L24.4656 3.23081ZM4.85917 46.3363L5.00002 45.3662L24.188 48.4188L24 49.3989L4.85917 46.3363ZM4.41271 47.3138L4.83989 46.4039L24.7542 58.3525L24.2167 59.1962L4.41271 47.3138ZM2 21V19H1V21H2ZM0 15.5C0 16.3284 0.671573 17 1.5 17C2.32843 17 3 16.3284 3 15.5C3 14.6716 2.32843 14 1.5 14C0.671573 14 0 14.6716 0 15.5ZM1.5 47C0.671573 47 0 46.3284 0 45.5C0 44.6716 0.671573 44 1.5 44C2.32843 44 3 44.6716 3 45.5C3 46.3284 2.32843 47 1.5 47ZM0 24.5C0 25.3284 0.671573 26 1.5 26C2.32843 26 3 25.3284 3 24.5C3 23.6716 2.32843 23 1.5 23C0.671573 23 0 23.6716 0 24.5ZM11.5 39C10.6716 39 10 38.3284 10 37.5C10 36.6716 10.6716 36 11.5 36C12.3284 36 13 36.6716 13 37.5C13 38.3284 12.3284 39 11.5 39Z"
          fill="white"/>
</svg>
